<svg width="22" height="22" viewBox="0 0 22 22" fill="none" xmlns="http://www.w3.org/2000/svg">
<path d="M10.711 0.804199C5.01993 0.804199 0.405762 5.41837 0.405762 11.1095C0.405762 16.8006 5.01993 21.4147 10.711 21.4147C16.4021 21.4147 21.0163 16.8006 21.0163 11.1095C21.0163 5.41837 16.4021 0.804199 10.711 0.804199ZM15.4286 15.6842C15.3018 15.8947 15.0778 16.0116 14.8489 16.0116C14.7295 16.0116 14.6089 15.9809 14.5006 15.9144C10.4415 13.4738 5.63162 14.8855 5.58362 14.9002C5.22547 15.0085 4.84762 14.8067 4.73931 14.4498C4.63101 14.0916 4.83162 13.7138 5.18855 13.6055C5.40762 13.5378 10.6126 11.9968 15.1984 14.755C15.5184 14.947 15.6218 15.363 15.4286 15.6842ZM16.7086 12.8313C16.5609 13.0885 16.2913 13.2325 16.0144 13.2325C15.879 13.2325 15.7424 13.1981 15.6169 13.1255C10.519 10.1938 5.38301 11.9008 5.33132 11.9181C4.91408 12.0621 4.4587 11.8393 4.3147 11.4208C4.17193 11.0036 4.3947 10.5482 4.81193 10.4055C5.04947 10.3242 10.6938 8.44976 16.4144 11.7384C16.7972 11.9587 16.9289 12.4485 16.7086 12.8313ZM17.2809 10.0793C17.127 10.0793 16.9707 10.0424 16.8243 9.96607C10.9473 6.87929 4.91162 8.72668 4.85131 8.74638C4.33193 8.91007 3.77931 8.62207 3.61562 8.10391C3.45192 7.58453 3.73993 7.03191 4.25808 6.86822C4.53624 6.78083 11.1443 4.75867 17.74 8.22207C18.2212 8.47561 18.407 9.07007 18.1535 9.5513C17.9775 9.8873 17.6354 10.0793 17.2809 10.0793Z" fill="#AEAEAE"/>
</svg>
